PathFileType	3	(X/Y/Z)	D:\MSKbioDyn\WearableRobot\20250106\S011\S011_static\S011_walking01.trc
DataRate	CameraRate	NumFrames	NumMarkers	Units	OrigDataRate	OrigDataStartFrame	OrigNumFrames
200.0	200.0	6	39	mm	200.0	701	1867	
Frame#	Time	LFHD			RFHD			LBHD			RBHD			C7			T10			CLAV			STRN			RBAK			LSHO			LUPA			LELB			LFRM			LWRA			LWRB			LFIN			RSHO			RUPA			RELB			RFRM			RWRA			RWRB			RFIN			LASI			RASI			LPSI			RPSI			LTHI			LKNE			LTIB			LANK			LHEE			LTOE			RTHI			RKNE			RTIB			RANK			RHEE			RTOE			
		X1	Y1	Z1	X2	Y2	Z2	X3	Y3	Z3	X4	Y4	Z4	X5	Y5	Z5	X6	Y6	Z6	X7	Y7	Z7	X8	Y8	Z8	X9	Y9	Z9	X10	Y10	Z10	X11	Y11	Z11	X12	Y12	Z12	X13	Y13	Z13	X14	Y14	Z14	X15	Y15	Z15	X16	Y16	Z16	X17	Y17	Z17	X18	Y18	Z18	X19	Y19	Z19	X20	Y20	Z20	X21	Y21	Z21	X22	Y22	Z22	X23	Y23	Z23	X24	Y24	Z24	X25	Y25	Z25	X26	Y26	Z26	X27	Y27	Z27	X28	Y28	Z28	X29	Y29	Z29	X30	Y30	Z30	X31	Y31	Z31	X32	Y32	Z32	X33	Y33	Z33	X34	Y34	Z34	X35	Y35	Z35	X36	Y36	Z36	X37	Y37	Z37	X38	Y38	Z38	X39	Y39	Z39	
701	3.495	223.78291	1661.965	-312.84369	210.42387	1653.9883	-180.79837	107.34074	1589.4513	-322.06308	98.393631	1574.8278	-185.38348	62.097816	1456.7439	-255.77861	20.210249	1150.3978	-241.79613	192.68655	1378.1267	-261.23636	229.29906	1178.8944	-267.46899	1.2355126	1270.2013	-188.46066	117.79166	1406.0405	-435.83362	92.961441	1209.8142	-513.12885	143.16084	1057.6658	-526.4422	244.26244	988.00751	-538.93665	328.27832	904.09613	-478.9826	300.33383	887.82495	-539.68451	364.39438	844.32648	-539.0567	123.23461	1397.7336	-80.404991	81.619713	1215.3893	-16.60895	59.931927	1046.9031	-20.979622	100.29021	927.88611	9.0449848	136.63237	819.82062	-45.170528	89.333023	818.8089	9.8075857	129.21825	744.56549	20.866938	204.21173	935.21722	-390.93195	222.75626	951.07648	-145.38313	9.958498	948.34229	-290.05511	14.900157	945.93182	-217.52405	167.97438	729.22467	-450.22122	198.95605	481.39722	-438.32947	84.914436	402.82315	-440.79779	-102.11731	231.41479	-392.64041	-182.89871	255.54488	-319.59851	-48.612659	94.649857	-390.98355	205.96489	737.79425	-95.823967	204.11501	479.11191	-144.1562	156.07436	305.2626	-135.31813	135.83502	84.410507	-193.32242	57.757973	36.784836	-244.37364	285.31274	53.854759	-221.84149
702	3.5	224.12035	1662.3867	-312.87033	210.84409	1654.4969	-180.80545	107.50314	1590.1089	-322.01993	98.586082	1575.6075	-185.37045	62.035625	1457.4084	-255.59807	19.761866	1151.1763	-241.43208	192.52965	1378.6821	-261.2428	228.91327	1179.4368	-267.43179	1.123716	1270.9994	-187.86263	117.32302	1406.6338	-435.77838	91.119751	1210.2362	-512.5885	139.89215	1057.8336	-525.74811	239.59276	986.28705	-538.65051	322.1041	900.53796	-479.24261	293.70853	884.95697	-539.56244	356.57632	839.97748	-539.50049	123.51624	1398.4664	-80.360886	83.526901	1216.0203	-15.971167	63.162544	1047.0774	-20.338528	105.33855	928.54114	9.3236761	142.78683	821.1214	-45.245995	95.96244	819.2984	10.045845	136.81725	745.72125	20.924187	205.30122	936.47217	-389.67996	221.82385	951.31311	-145.06535	9.3568535	949.06946	-290.21375	14.073838	946.67096	-217.74135	169.84912	730.80219	-449.98096	203.28383	483.44373	-438.0654	90.368744	403.76938	-440.37521	-93.979393	229.47958	-393.36014	-175.76212	251.44524	-320.98236	-37.815586	93.954597	-391.53186	203.72116	737.75775	-95.471596	199.93164	478.87921	-144.11589	151.16772	305.33939	-135.43689	130.21494	84.376877	-193.55339	52.231247	37.021076	-244.31833	279.72311	53.618137	-221.65077
703	3.505	224.39893	1662.5737	-312.70181	211.20238	1654.9559	-180.78624	107.65086	1590.824	-322.02704	98.7472	1576.2964	-185.30937	61.983475	1458.0515	-255.36996	19.341242	1151.9404	-240.98727	192.39842	1379.3064	-261.24445	228.50574	1180.0553	-267.46597	0.9712463	1271.8049	-187.26854	116.82994	1407.2018	-435.76093	89.21344	1210.6586	-511.94131	136.6078	1057.9467	-524.92102	234.8412	984.5993	-538.39471	315.67926	897.02533	-479.33276	286.7258	882.16705	-539.79572	348.90912	835.93158	-539.71613	123.74111	1399.2069	-80.363197	85.216042	1216.6482	-15.53047	66.40963	1047.2998	-19.743652	110.37415	929.22656	9.5323534	148.99179	822.55438	-45.113735	102.55464	819.97827	10.207633	145.02425	748.27026	20.423069	204.3037	937.03662	-389.72058	220.4052	951.49335	-144.92827	8.7244921	949.92957	-290.47189	13.357988	947.3429	-218.01439	170.12358	732.42059	-450.61942	207.71439	485.46487	-437.42944	95.700539	404.54691	-439.94205	-85.891586	227.37756	-394.01041	-168.85428	247.21263	-322.44656	-26.581066	93.301262	-392.45285	200.94931	737.49396	-95.46891	195.76666	478.70587	-144.11868	146.24387	305.56677	-135.54811	124.65073	84.479874	-193.58446	46.536648	36.86771	-244.38011	274.02435	53.44244	-221.70288
704	3.51	224.87247	1663.0723	-312.86835	211.57379	1655.366	-180.81708	107.8403	1591.4523	-321.96863	98.93956	1577.0403	-185.2782	61.920811	1458.6908	-255.1572	18.94623	1152.5032	-240.42442	192.17096	1379.8011	-261.32288	228.1521	1180.5813	-267.41455	0.82543522	1272.616	-186.73605	116.35129	1407.6831	-435.65613	87.363258	1211.101	-511.34866	133.24538	1058.1129	-524.32666	230.00809	982.96368	-538.13922	309.32712	893.61438	-479.4303	279.78046	879.47125	-539.81506	340.91867	831.80481	-540.00177	124.0016	1399.9279	-80.2995	86.904366	1217.3287	-15.102037	69.660004	1047.5559	-19.120472	115.47377	929.97827	9.7549343	155.43645	823.86469	-45.265007	109.21845	820.60785	10.304397	152.75224	749.64246	20.396395	203.81891	937.7276	-389.47491	219.39316	951.65759	-144.42531	8.1044626	950.6095	-290.79568	12.453536	947.99896	-218.31171	172.12515	733.75848	-450.24252	211.96973	487.48044	-436.93906	100.99384	405.23102	-439.54077	-77.714455	224.99352	-394.66281	-162.09543	242.52817	-324.07672	-14.926778	92.60392	-393.3175	198.39342	737.25079	-95.313934	191.67319	478.57733	-144.15475	141.28368	305.642	-135.67036	119.15314	84.492569	-193.72495	40.871414	36.989143	-244.36317	268.38547	53.258759	-221.58089
705	3.515	225.22379	1663.4054	-312.92194	212.00807	1655.7439	-180.82253	108.1609	1592.0807	-321.86075	99.12571	1577.7424	-185.23466	61.843781	1459.2782	-254.93831	18.428789	1153.3734	-240.11832	192.02216	1380.3622	-261.34183	227.71689	1181.1267	-267.38739	0.6779108	1273.3446	-186.16647	115.89854	1408.2621	-435.64542	85.22509	1211.4619	-510.95074	129.85791	1058.3407	-523.73187	225.22113	981.36536	-537.67981	302.61545	890.13232	-479.46667	272.79446	876.80029	-539.89734	332.71326	827.68506	-540.22522	124.27238	1400.6022	-80.189537	88.564674	1217.9485	-14.705259	72.932266	1047.7804	-18.518602	120.55042	930.77649	9.9615889	161.91309	825.30487	-45.348164	115.97668	821.44818	10.635555	160.85118	751.03583	20.271584	203.41438	938.49249	-388.98413	218.17227	951.84106	-143.99297	7.4145045	951.18524	-291.15121	11.638284	948.58728	-218.70343	173.41312	735.34167	-450.19797	216.15666	489.63687	-436.39575	106.22147	405.79602	-439.13571	-69.456909	222.40617	-395.38104	-154.68803	237.46457	-325.315	-3.158834	91.835411	-394.23425	195.66626	736.87616	-95.131119	187.56122	478.50342	-144.24316	136.21124	305.78143	-135.90082	113.78018	84.456696	-194.00514	35.199081	37.10252	-244.41006	262.72125	53.078445	-221.61247
706	3.52	225.5676	1663.7306	-312.95874	212.44078	1656.0955	-180.86304	108.1767	1592.7668	-321.94583	99.278763	1578.3851	-185.20586	61.773373	1459.8693	-254.74271	17.98761	1153.8707	-239.6378	191.83052	1380.8165	-261.39435	227.30731	1181.535	-267.28653	0.50087148	1274.1013	-185.61958	115.45685	1408.7401	-435.57849	83.353157	1211.9396	-510.46259	126.51292	1058.4846	-522.94208	220.26866	979.81189	-537.4104	295.93976	886.84161	-479.66397	265.53458	874.16742	-539.70386	324.47736	823.67578	-540.45337	124.52219	1401.2831	-80.179329	90.209076	1218.5898	-14.323806	76.210503	1048.0026	-17.950064	125.68188	931.61737	10.136265	167.99138	826.80463	-45.626404	122.68446	822.11761	10.748852	168.49574	752.67822	20.117413	203.09196	939.14301	-388.44662	217.06076	952.00897	-143.30133	6.758996	951.84027	-291.56314	10.699343	949.16187	-219.10304	173.22998	737.47113	-450.45264	220.13025	491.52652	-435.85843	111.40254	406.21826	-438.76837	-61.135578	219.63081	-396.0032	-147.31186	232.05862	-326.73834	8.3069992	91.04245	-394.67303	193.03795	736.82861	-95.056549	183.2997	478.3157	-144.22331	131.30457	305.93539	-136.07671	108.52905	84.388893	-194.45929	29.448708	37.137814	-244.32498	257.04254	52.949646	-221.63289
